<svg width="343" height="99" viewBox="0 0 343 99" fill="none" xmlns="http://www.w3.org/2000/svg">
<g filter="url(#filter0_d_797_11207)">
<path d="M62.6738 48H54.9238C54.2905 48 53.8238 47.8667 53.5238 47.6C53.2572 47.3 53.1238 46.8333 53.1238 46.2V13.8C53.1238 13.1667 53.2572 12.7167 53.5238 12.45C53.8238 12.15 54.2905 12 54.9238 12H77.2238C77.8572 12 78.3072 12.15 78.5738 12.45C78.8738 12.7167 79.0238 13.1667 79.0238 13.8V19.75C79.0238 20.3833 78.8738 20.85 78.5738 21.15C78.3072 21.4167 77.8572 21.55 77.2238 21.55H64.4738V26.75H73.1738C73.8072 26.75 74.2572 26.9 74.5238 27.2C74.8238 27.4667 74.9738 27.9167 74.9738 28.55V34.55C74.9738 35.1833 74.8238 35.65 74.5238 35.95C74.2572 36.2167 73.8072 36.35 73.1738 36.35H64.4738V46.2C64.4738 46.8333 64.3238 47.3 64.0238 47.6C63.7572 47.8667 63.3072 48 62.6738 48ZM114.288 38.55C114.288 40.0833 114.055 41.4833 113.588 42.75C113.155 43.9833 112.355 45.05 111.188 45.95C110.055 46.8167 108.471 47.5 106.438 48C104.438 48.5 101.888 48.75 98.7879 48.75C95.6879 48.75 93.1212 48.5 91.0879 48C89.0546 47.5 87.4546 46.8167 86.2879 45.95C85.1546 45.05 84.3546 43.9833 83.8879 42.75C83.4546 41.4833 83.2379 40.0833 83.2379 38.55V21.5C83.2379 19.9667 83.4546 18.5833 83.8879 17.35C84.3546 16.0833 85.1546 15 86.2879 14.1C87.4546 13.2 89.0546 12.5 91.0879 12C93.1212 11.5 95.6879 11.25 98.7879 11.25C101.888 11.25 104.438 11.5 106.438 12C108.471 12.5 110.055 13.2 111.188 14.1C112.355 15 113.155 16.0833 113.588 17.35C114.055 18.5833 114.288 19.9667 114.288 21.5V38.55ZM94.5879 36.75C94.5879 37.4167 94.8379 37.9833 95.3379 38.45C95.8379 38.8833 96.9879 39.1 98.7879 39.1C100.588 39.1 101.738 38.8833 102.238 38.45C102.738 37.9833 102.988 37.4167 102.988 36.75V23.3C102.988 22.6667 102.738 22.1333 102.238 21.7C101.738 21.2333 100.588 21 98.7879 21C96.9879 21 95.8379 21.2333 95.3379 21.7C94.8379 22.1333 94.5879 22.6667 94.5879 23.3V36.75ZM131.953 21V27.4H135.703C136.57 27.4 137.153 27.1833 137.453 26.75C137.753 26.2833 137.903 25.7167 137.903 25.05V23.35C137.903 22.6833 137.753 22.1333 137.453 21.7C137.153 21.2333 136.57 21 135.703 21H131.953ZM130.153 48H122.453C121.82 48 121.353 47.8667 121.053 47.6C120.786 47.3 120.653 46.8333 120.653 46.2V13.8C120.653 13.1667 120.786 12.7167 121.053 12.45C121.353 12.15 121.82 12 122.453 12H139.103C142.836 12 145.403 12.7833 146.803 14.35C148.236 15.8833 148.953 17.8833 148.953 20.35V22.65C148.953 24.05 148.736 25.25 148.303 26.25C147.903 27.2167 147.186 27.9167 146.153 28.35C147.953 28.55 149.403 29.2833 150.503 30.55C151.636 31.8167 152.203 33.5 152.203 35.6V46.2C152.203 46.8333 152.053 47.3 151.753 47.6C151.486 47.8667 151.036 48 150.403 48H142.653C142.02 48 141.553 47.8667 141.253 47.6C140.986 47.3 140.853 46.8333 140.853 46.2V38.55C140.853 37.8167 140.703 37.2833 140.403 36.95C140.136 36.5833 139.653 36.4 138.953 36.4H131.953V46.2C131.953 46.8333 131.803 47.3 131.503 47.6C131.236 47.8667 130.786 48 130.153 48ZM173.298 48H165.198C164.564 48 164.098 47.8667 163.798 47.6C163.531 47.3 163.398 46.8333 163.398 46.2V21.65H156.048C155.414 21.65 154.948 21.5167 154.648 21.25C154.381 20.95 154.248 20.4833 154.248 19.85V13.8C154.248 13.1667 154.381 12.7167 154.648 12.45C154.948 12.15 155.414 12 156.048 12H182.448C183.081 12 183.531 12.15 183.798 12.45C184.098 12.7167 184.248 13.1667 184.248 13.8V19.85C184.248 20.4833 184.098 20.95 183.798 21.25C183.531 21.5167 183.081 21.65 182.448 21.65H175.098V46.2C175.098 46.8333 174.948 47.3 174.648 47.6C174.381 47.8667 173.931 48 173.298 48ZM219.76 38.55C219.76 40.0833 219.527 41.4833 219.06 42.75C218.627 43.9833 217.827 45.05 216.66 45.95C215.527 46.8167 213.96 47.5 211.96 48C209.96 48.5 207.41 48.75 204.31 48.75C201.21 48.75 198.66 48.5 196.66 48C194.66 47.5 193.077 46.8167 191.91 45.95C190.777 45.05 189.977 43.9833 189.51 42.75C189.077 41.4833 188.86 40.0833 188.86 38.55V13.8C188.86 13.1667 188.993 12.7167 189.26 12.45C189.56 12.15 190.027 12 190.66 12H198.51C199.143 12 199.593 12.15 199.86 12.45C200.16 12.7167 200.31 13.1667 200.31 13.8V36.6C200.31 37.2667 200.56 37.8333 201.06 38.3C201.56 38.7333 202.677 38.95 204.41 38.95C206.177 38.95 207.31 38.7333 207.81 38.3C208.31 37.8333 208.56 37.2667 208.56 36.6V13.8C208.56 13.1667 208.693 12.7167 208.96 12.45C209.26 12.15 209.727 12 210.36 12H217.96C218.593 12 219.043 12.15 219.31 12.45C219.61 12.7167 219.76 13.1667 219.76 13.8V38.55ZM235.715 48H228.215C227.582 48 227.115 47.8667 226.815 47.6C226.548 47.3 226.415 46.8333 226.415 46.2V13.8C226.415 13.1667 226.548 12.7167 226.815 12.45C227.115 12.15 227.582 12 228.215 12H233.415C234.048 12 234.582 12.1 235.015 12.3C235.482 12.5 235.932 12.85 236.365 13.35L246.065 24.45V13.8C246.065 13.1667 246.198 12.7167 246.465 12.45C246.765 12.15 247.232 12 247.865 12H255.365C255.998 12 256.448 12.15 256.715 12.45C257.015 12.7167 257.165 13.1667 257.165 13.8V46.2C257.165 46.8333 257.015 47.3 256.715 47.6C256.448 47.8667 255.998 48 255.365 48H247.865C247.232 48 246.765 47.8667 246.465 47.6C246.198 47.3 246.065 46.8333 246.065 46.2V40.05L237.515 29.7V46.2C237.515 46.8333 237.365 47.3 237.065 47.6C236.798 47.8667 236.348 48 235.715 48ZM289.061 48H265.861C265.228 48 264.761 47.8667 264.461 47.6C264.195 47.3 264.061 46.8333 264.061 46.2V13.8C264.061 13.1667 264.195 12.7167 264.461 12.45C264.761 12.15 265.228 12 265.861 12H289.061C289.695 12 290.145 12.15 290.411 12.45C290.711 12.7167 290.861 13.1667 290.861 13.8V19.65C290.861 20.2833 290.711 20.75 290.411 21.05C290.145 21.3167 289.695 21.45 289.061 21.45H275.261V25.3H285.011C285.645 25.3 286.095 25.45 286.361 25.75C286.661 26.0167 286.811 26.4667 286.811 27.1V32.45C286.811 33.0833 286.661 33.55 286.361 33.85C286.095 34.1167 285.645 34.25 285.011 34.25H275.261V38.55H289.061C289.695 38.55 290.145 38.7 290.411 39C290.711 39.2667 290.861 39.7167 290.861 40.35V46.2C290.861 46.8333 290.711 47.3 290.411 47.6C290.145 47.8667 289.695 48 289.061 48Z" fill="url(#paint0_linear_797_11207)"/>
</g>
<g filter="url(#filter1_d_797_11207)">
<path d="M68.688 91H57.628C57.1847 91 56.858 90.9067 56.648 90.72C56.4614 90.51 56.368 90.1833 56.368 89.74V85.645C56.368 85.2017 56.4614 84.8867 56.648 84.7C56.858 84.49 57.1847 84.385 57.628 84.385H67.043C67.3464 84.385 67.568 84.2917 67.708 84.105C67.8714 83.895 67.953 83.65 67.953 83.37C67.953 82.9733 67.8714 82.6817 67.708 82.495C67.568 82.3083 67.3464 82.2033 67.043 82.18L61.793 81.445C60.1597 81.2117 58.8414 80.675 57.838 79.835C56.858 78.995 56.368 77.595 56.368 75.635V71.96C56.368 69.9767 57.0097 68.46 58.293 67.41C59.5764 66.3367 61.3497 65.8 63.613 65.8H73.413C73.8564 65.8 74.1714 65.905 74.358 66.115C74.568 66.3017 74.673 66.6167 74.673 67.06V71.225C74.673 71.6683 74.568 71.995 74.358 72.205C74.1714 72.3917 73.8564 72.485 73.413 72.485H65.258C64.9547 72.485 64.7214 72.59 64.558 72.8C64.3947 72.9867 64.313 73.2317 64.313 73.535C64.313 73.8383 64.3947 74.095 64.558 74.305C64.7214 74.515 64.9547 74.6317 65.258 74.655L70.473 75.355C72.1064 75.5883 73.4247 76.125 74.428 76.965C75.4314 77.805 75.933 79.205 75.933 81.165V84.84C75.933 86.8233 75.2797 88.3517 73.973 89.425C72.6897 90.475 70.928 91 68.688 91ZM88.8967 73.15L87.2517 78.47H92.7467L91.1017 73.15C91.0084 72.94 90.9034 72.7883 90.7867 72.695C90.6934 72.6017 90.5767 72.555 90.4367 72.555H89.5617C89.4217 72.555 89.2934 72.6017 89.1767 72.695C89.0834 72.7883 88.99 72.94 88.8967 73.15ZM86.9017 89.74C86.9017 90.1833 86.7967 90.51 86.5867 90.72C86.4 90.9067 86.085 91 85.6417 91H80.4967C80.0534 91 79.7267 90.9067 79.5167 90.72C79.33 90.51 79.2367 90.1833 79.2367 89.74V80.5C79.2367 79.8 79.3417 78.995 79.5517 78.085C79.785 77.175 80.135 76.1133 80.6017 74.9L83.6467 66.955C83.7867 66.5583 83.9967 66.2667 84.2767 66.08C84.58 65.8933 84.965 65.8 85.4317 65.8H94.8467C95.29 65.8 95.6517 65.8933 95.9317 66.08C96.235 66.2667 96.4567 66.5583 96.5967 66.955L99.6417 74.9C100.108 76.1133 100.447 77.175 100.657 78.085C100.89 78.995 101.007 79.8 101.007 80.5V89.74C101.007 90.1833 100.902 90.51 100.692 90.72C100.505 90.9067 100.19 91 99.7467 91H94.4617C93.995 91 93.645 90.9067 93.4117 90.72C93.2017 90.51 93.0967 90.1833 93.0967 89.74V84.84H86.9017V89.74ZM124.403 91H106.588C106.145 91 105.818 90.9067 105.608 90.72C105.421 90.51 105.328 90.1833 105.328 89.74V67.06C105.328 66.6167 105.421 66.3017 105.608 66.115C105.818 65.905 106.145 65.8 106.588 65.8H112.013C112.456 65.8 112.771 65.905 112.958 66.115C113.168 66.3017 113.273 66.6167 113.273 67.06V84.385H118.068V78.715C118.068 78.2717 118.161 77.9567 118.348 77.77C118.558 77.56 118.885 77.455 119.328 77.455H124.403C124.846 77.455 125.161 77.56 125.348 77.77C125.558 77.9567 125.663 78.2717 125.663 78.715V89.74C125.663 90.1833 125.558 90.51 125.348 90.72C125.161 90.9067 124.846 91 124.403 91ZM147.164 91H130.924C130.481 91 130.154 90.9067 129.944 90.72C129.757 90.51 129.664 90.1833 129.664 89.74V67.06C129.664 66.6167 129.757 66.3017 129.944 66.115C130.154 65.905 130.481 65.8 130.924 65.8H147.164C147.607 65.8 147.922 65.905 148.109 66.115C148.319 66.3017 148.424 66.6167 148.424 67.06V71.155C148.424 71.5983 148.319 71.925 148.109 72.135C147.922 72.3217 147.607 72.415 147.164 72.415H137.504V75.11H144.329C144.772 75.11 145.087 75.215 145.274 75.425C145.484 75.6117 145.589 75.9267 145.589 76.37V80.115C145.589 80.5583 145.484 80.885 145.274 81.095C145.087 81.2817 144.772 81.375 144.329 81.375H137.504V84.385H147.164C147.607 84.385 147.922 84.49 148.109 84.7C148.319 84.8867 148.424 85.2017 148.424 85.645V89.74C148.424 90.1833 148.319 90.51 148.109 90.72C147.922 90.9067 147.607 91 147.164 91ZM180.906 91H169.881C166.965 91 164.795 90.4167 163.371 89.25C161.971 88.0833 161.271 86.2867 161.271 83.86V72.94C161.271 70.5133 161.971 68.7167 163.371 67.55C164.795 66.3833 166.965 65.8 169.881 65.8H178.631C179.075 65.8 179.39 65.905 179.576 66.115C179.786 66.3017 179.891 66.6167 179.891 67.06V71.295C179.891 71.7383 179.786 72.065 179.576 72.275C179.39 72.4617 179.075 72.555 178.631 72.555H171.351C170.628 72.555 170.091 72.7067 169.741 73.01C169.391 73.29 169.216 73.7217 169.216 74.305V82.67C169.216 83.2533 169.345 83.685 169.601 83.965C169.881 84.245 170.29 84.385 170.826 84.385H174.221V78.925C174.221 78.4817 174.315 78.1667 174.501 77.98C174.711 77.77 175.038 77.665 175.481 77.665H180.906C181.35 77.665 181.665 77.77 181.851 77.98C182.061 78.1667 182.166 78.4817 182.166 78.925V89.74C182.166 90.1833 182.061 90.51 181.851 90.72C181.665 90.9067 181.35 91 180.906 91ZM195.572 73.15L193.927 78.47H199.422L197.777 73.15C197.683 72.94 197.578 72.7883 197.462 72.695C197.368 72.6017 197.252 72.555 197.112 72.555H196.237C196.097 72.555 195.968 72.6017 195.852 72.695C195.758 72.7883 195.665 72.94 195.572 73.15ZM193.577 89.74C193.577 90.1833 193.472 90.51 193.262 90.72C193.075 90.9067 192.76 91 192.317 91H187.172C186.728 91 186.402 90.9067 186.192 90.72C186.005 90.51 185.912 90.1833 185.912 89.74V80.5C185.912 79.8 186.017 78.995 186.227 78.085C186.46 77.175 186.81 76.1133 187.277 74.9L190.322 66.955C190.462 66.5583 190.672 66.2667 190.952 66.08C191.255 65.8933 191.64 65.8 192.107 65.8H201.522C201.965 65.8 202.327 65.8933 202.607 66.08C202.91 66.2667 203.132 66.5583 203.272 66.955L206.317 74.9C206.783 76.1133 207.122 77.175 207.332 78.085C207.565 78.995 207.682 79.8 207.682 80.5V89.74C207.682 90.1833 207.577 90.51 207.367 90.72C207.18 90.9067 206.865 91 206.422 91H201.137C200.67 91 200.32 90.9067 200.087 90.72C199.877 90.51 199.772 90.1833 199.772 89.74V84.84H193.577V89.74ZM218.478 91H213.263C212.82 91 212.493 90.9067 212.283 90.72C212.096 90.51 212.003 90.1833 212.003 89.74V67.06C212.003 66.6167 212.096 66.3017 212.283 66.115C212.493 65.905 212.82 65.8 213.263 65.8H218.898C219.271 65.8 219.575 65.8817 219.808 66.045C220.065 66.2083 220.298 66.4767 220.508 66.85L223.658 72.555C223.775 72.765 223.868 72.9167 223.938 73.01C224.031 73.1033 224.148 73.15 224.288 73.15H224.603C224.743 73.15 224.848 73.1033 224.918 73.01C225.011 72.9167 225.116 72.765 225.233 72.555L228.348 66.85C228.558 66.4767 228.78 66.2083 229.013 66.045C229.27 65.8817 229.585 65.8 229.958 65.8H235.628C236.071 65.8 236.386 65.905 236.573 66.115C236.783 66.3017 236.888 66.6167 236.888 67.06V89.74C236.888 90.1833 236.783 90.51 236.573 90.72C236.386 90.9067 236.071 91 235.628 91H230.238C229.795 91 229.468 90.9067 229.258 90.72C229.071 90.51 228.978 90.1833 228.978 89.74V77.42L226.913 81.235C226.703 81.6317 226.446 81.9233 226.143 82.11C225.863 82.2733 225.501 82.355 225.058 82.355H223.658C223.215 82.355 222.841 82.2733 222.538 82.11C222.258 81.9233 222.013 81.6317 221.803 81.235L219.738 77.42V89.74C219.738 90.1833 219.633 90.51 219.423 90.72C219.236 90.9067 218.921 91 218.478 91ZM259.205 91H242.965C242.522 91 242.195 90.9067 241.985 90.72C241.798 90.51 241.705 90.1833 241.705 89.74V67.06C241.705 66.6167 241.798 66.3017 241.985 66.115C242.195 65.905 242.522 65.8 242.965 65.8H259.205C259.648 65.8 259.963 65.905 260.15 66.115C260.36 66.3017 260.465 66.6167 260.465 67.06V71.155C260.465 71.5983 260.36 71.925 260.15 72.135C259.963 72.3217 259.648 72.415 259.205 72.415H249.545V75.11H256.37C256.813 75.11 257.128 75.215 257.315 75.425C257.525 75.6117 257.63 75.9267 257.63 76.37V80.115C257.63 80.5583 257.525 80.885 257.315 81.095C257.128 81.2817 256.813 81.375 256.37 81.375H249.545V84.385H259.205C259.648 84.385 259.963 84.49 260.15 84.7C260.36 84.8867 260.465 85.2017 260.465 85.645V89.74C260.465 90.1833 260.36 90.51 260.15 90.72C259.963 90.9067 259.648 91 259.205 91ZM276.295 91H265.235C264.792 91 264.465 90.9067 264.255 90.72C264.069 90.51 263.975 90.1833 263.975 89.74V85.645C263.975 85.2017 264.069 84.8867 264.255 84.7C264.465 84.49 264.792 84.385 265.235 84.385H274.65C274.954 84.385 275.175 84.2917 275.315 84.105C275.479 83.895 275.56 83.65 275.56 83.37C275.56 82.9733 275.479 82.6817 275.315 82.495C275.175 82.3083 274.954 82.2033 274.65 82.18L269.4 81.445C267.767 81.2117 266.449 80.675 265.445 79.835C264.465 78.995 263.975 77.595 263.975 75.635V71.96C263.975 69.9767 264.617 68.46 265.9 67.41C267.184 66.3367 268.957 65.8 271.22 65.8H281.02C281.464 65.8 281.779 65.905 281.965 66.115C282.175 66.3017 282.28 66.6167 282.28 67.06V71.225C282.28 71.6683 282.175 71.995 281.965 72.205C281.779 72.3917 281.464 72.485 281.02 72.485H272.865C272.562 72.485 272.329 72.59 272.165 72.8C272.002 72.9867 271.92 73.2317 271.92 73.535C271.92 73.8383 272.002 74.095 272.165 74.305C272.329 74.515 272.562 74.6317 272.865 74.655L278.08 75.355C279.714 75.5883 281.032 76.125 282.035 76.965C283.039 77.805 283.54 79.205 283.54 81.165V84.84C283.54 86.8233 282.887 88.3517 281.58 89.425C280.297 90.475 278.535 91 276.295 91Z" fill="url(#paint1_linear_797_11207)"/>
</g>
<defs>
<filter id="filter0_d_797_11207" x="49.123" y="11.25" width="245.738" height="45.5" filterUnits="userSpaceOnUse" color-interpolation-filters="sRGB">
<feFlood flood-opacity="0" result="BackgroundImageFix"/>
<feColorMatrix in="SourceAlpha" type="matrix" values="0 0 0 0 0 0 0 0 0 0 0 0 0 0 0 0 0 0 127 0" result="hardAlpha"/>
<feOffset dy="4"/>
<feGaussianBlur stdDeviation="2"/>
<feComposite in2="hardAlpha" operator="out"/>
<feColorMatrix type="matrix" values="0 0 0 0 0 0 0 0 0 0 0 0 0 0 0 0 0 0 0.25 0"/>
<feBlend mode="normal" in2="BackgroundImageFix" result="effect1_dropShadow_797_11207"/>
<feBlend mode="normal" in="SourceGraphic" in2="effect1_dropShadow_797_11207" result="shape"/>
</filter>
<filter id="filter1_d_797_11207" x="52.3672" y="65.8" width="235.174" height="33.2" filterUnits="userSpaceOnUse" color-interpolation-filters="sRGB">
<feFlood flood-opacity="0" result="BackgroundImageFix"/>
<feColorMatrix in="SourceAlpha" type="matrix" values="0 0 0 0 0 0 0 0 0 0 0 0 0 0 0 0 0 0 127 0" result="hardAlpha"/>
<feOffset dy="4"/>
<feGaussianBlur stdDeviation="2"/>
<feComposite in2="hardAlpha" operator="out"/>
<feColorMatrix type="matrix" values="0 0 0 0 0 0 0 0 0 0 0 0 0 0 0 0 0 0 0.25 0"/>
<feBlend mode="normal" in2="BackgroundImageFix" result="effect1_dropShadow_797_11207"/>
<feBlend mode="normal" in="SourceGraphic" in2="effect1_dropShadow_797_11207" result="shape"/>
</filter>
<linearGradient id="paint0_linear_797_11207" x1="171.5" y1="0" x2="171.5" y2="61" gradientUnits="userSpaceOnUse">
<stop offset="0.680208" stop-color="#FF4E00"/>
<stop offset="1" stop-color="#D6E900"/>
</linearGradient>
<linearGradient id="paint1_linear_797_11207" x1="169.769" y1="57" x2="169.769" y2="99" gradientUnits="userSpaceOnUse">
<stop offset="0.680208" stop-color="#FF4E00"/>
<stop offset="1" stop-color="#D6E900"/>
</linearGradient>
</defs>
</svg>
