<svg width="33" height="32" viewBox="0 0 33 32" fill="none" xmlns="http://www.w3.org/2000/svg">
<g clip-path="url(#clip0_279_331)">
<path d="M16.5 2.87544C20.9086 2.87544 21.4307 2.89415 23.1645 2.969C24.7758 3.03761 25.6459 3.29958 26.226 3.51789C26.993 3.80481 27.5473 4.15411 28.1209 4.70924C28.701 5.2706 29.0555 5.80078 29.352 6.54303C29.5775 7.1044 29.8482 7.95268 29.9191 9.5058C29.9965 11.1899 30.0158 11.6951 30.0158 15.9553C30.0158 20.2216 29.9965 20.7269 29.9191 22.4047C29.8482 23.9641 29.5775 24.8061 29.352 25.3675C29.0555 26.1098 28.6945 26.6462 28.1209 27.2013C27.5408 27.7627 26.993 28.1057 26.226 28.3926C25.6459 28.611 24.7693 28.8729 23.1645 28.9415C21.4242 29.0164 20.9021 29.0351 16.5 29.0351C12.0914 29.0351 11.5693 29.0164 9.83555 28.9415C8.22422 28.8729 7.3541 28.611 6.77402 28.3926C6.00703 28.1057 5.45273 27.7564 4.8791 27.2013C4.29902 26.6399 3.94453 26.1098 3.64805 25.3675C3.42246 24.8061 3.15176 23.9579 3.08086 22.4047C3.00352 20.7206 2.98418 20.2154 2.98418 15.9553C2.98418 11.6889 3.00352 11.1837 3.08086 9.5058C3.15176 7.94645 3.42246 7.1044 3.64805 6.54303C3.94453 5.80078 4.30547 5.26437 4.8791 4.70924C5.45918 4.14787 6.00703 3.80481 6.77402 3.51789C7.3541 3.29958 8.23066 3.03761 9.83555 2.969C11.5693 2.89415 12.0914 2.87544 16.5 2.87544ZM16.5 0C12.0205 0 11.4598 0.0187122 9.7002 0.093561C7.94707 0.16841 6.7418 0.442855 5.69766 0.835811C4.6084 1.24748 3.68672 1.79013 2.77148 2.68208C1.8498 3.56779 1.28906 4.45974 0.863672 5.50762C0.457617 6.52432 0.174023 7.68448 0.0966797 9.38105C0.0193359 11.0901 0 11.6327 0 15.9677C0 20.3027 0.0193359 20.8454 0.0966797 22.5482C0.174023 24.2448 0.457617 25.4112 0.863672 26.4216C1.28906 27.4757 1.8498 28.3677 2.77148 29.2534C3.68672 30.1391 4.6084 30.688 5.69121 31.0934C6.7418 31.4864 7.94062 31.7608 9.69375 31.8357C11.4533 31.9105 12.0141 31.9292 16.4936 31.9292C20.973 31.9292 21.5338 31.9105 23.2934 31.8357C25.0465 31.7608 26.2518 31.4864 27.2959 31.0934C28.3787 30.688 29.3004 30.1391 30.2156 29.2534C31.1309 28.3677 31.698 27.4757 32.117 26.4279C32.523 25.4112 32.8066 24.251 32.884 22.5544C32.9613 20.8516 32.9807 20.309 32.9807 15.974C32.9807 11.639 32.9613 11.0963 32.884 9.39352C32.8066 7.69695 32.523 6.53056 32.117 5.5201C31.7109 4.45974 31.1502 3.56779 30.2285 2.68208C29.3133 1.79637 28.3916 1.24748 27.3088 0.842049C26.2582 0.449093 25.0594 0.174647 23.3062 0.0997984C21.5402 0.0187122 20.9795 0 16.5 0Z" fill="white" fill-opacity="0.79"/>
<path d="M16.5 7.76562C11.8207 7.76562 8.02441 11.4395 8.02441 15.9678C8.02441 20.4962 11.8207 24.17 16.5 24.17C21.1793 24.17 24.9756 20.4962 24.9756 15.9678C24.9756 11.4395 21.1793 7.76562 16.5 7.76562ZM16.5 21.2883C13.4643 21.2883 11.0021 18.9056 11.0021 15.9678C11.0021 13.03 13.4643 10.6473 16.5 10.6473C19.5357 10.6473 21.9979 13.03 21.9979 15.9678C21.9979 18.9056 19.5357 21.2883 16.5 21.2883Z" fill="white" fill-opacity="0.79"/>
<path d="M27.2895 7.44027C27.2895 8.50063 26.4 9.35516 25.3107 9.35516C24.215 9.35516 23.332 8.4944 23.332 7.44027C23.332 6.37992 24.2215 5.52539 25.3107 5.52539C26.4 5.52539 27.2895 6.38615 27.2895 7.44027Z" fill="white" fill-opacity="0.79"/>
</g>
<defs>
<clipPath id="clip0_279_331">
<rect width="33" height="31.9355" fill="white"/>
</clipPath>
</defs>
</svg>
