<svg width="33" height="33" viewBox="0 0 33 33" fill="none" xmlns="http://www.w3.org/2000/svg">
<g clip-path="url(#clip0_279_332)">
<path fill-rule="evenodd" clip-rule="evenodd" d="M33 16.5C33 25.6127 25.6127 33 16.5 33C7.3873 33 0 25.6127 0 16.5C0 7.3873 7.3873 0 16.5 0C25.6127 0 33 7.3873 33 16.5ZM17.0913 12.181C15.4864 12.8485 12.2789 14.2301 7.46885 16.3258C6.68777 16.6364 6.2786 16.9403 6.24136 17.2374C6.17841 17.7396 6.80723 17.9373 7.66353 18.2065C7.78001 18.2432 7.90069 18.2811 8.02441 18.3213C8.86688 18.5952 10.0001 18.9156 10.5893 18.9283C11.1237 18.9398 11.7201 18.7195 12.3786 18.2673C16.8728 15.2336 19.1928 13.7002 19.3384 13.6672C19.4412 13.6439 19.5836 13.6145 19.6801 13.7003C19.7765 13.786 19.767 13.9484 19.7568 13.992C19.6945 14.2576 17.2262 16.5524 15.9488 17.7399C15.5506 18.1102 15.2681 18.3728 15.2104 18.4327C15.081 18.5671 14.9492 18.6942 14.8225 18.8163C14.0398 19.5708 13.4529 20.1366 14.855 21.0606C15.5287 21.5046 16.0679 21.8718 16.6058 22.2381C17.1932 22.6381 17.7791 23.0371 18.5372 23.534C18.7304 23.6606 18.9148 23.7921 19.0945 23.9202C19.7781 24.4076 20.3923 24.8454 21.1511 24.7756C21.592 24.735 22.0474 24.3205 22.2787 23.084C22.8253 20.1618 23.8997 13.8304 24.148 11.2213C24.1698 10.9928 24.1424 10.7002 24.1205 10.5718C24.0985 10.4434 24.0526 10.2604 23.8856 10.1249C23.6879 9.96454 23.3827 9.93071 23.2463 9.93312C22.6257 9.94405 21.6735 10.2751 17.0913 12.181Z" fill="white" fill-opacity="0.79"/>
</g>
<defs>
<clipPath id="clip0_279_332">
<rect width="33" height="33" fill="white"/>
</clipPath>
</defs>
</svg>
