<svg width="33" height="33" viewBox="0 0 33 33" fill="none" xmlns="http://www.w3.org/2000/svg">
<g clip-path="url(#clip0_279_333)">
<path fill-rule="evenodd" clip-rule="evenodd" d="M2.31971 2.31971C0 4.63943 0 8.37293 0 15.84V17.16C0 24.6271 0 28.3605 2.31971 30.6803C4.63943 33 8.37293 33 15.84 33H17.16C24.6271 33 28.3605 33 30.6803 30.6803C33 28.3605 33 24.6271 33 17.16V15.84C33 8.37293 33 4.63943 30.6803 2.31971C28.3605 0 24.6271 0 17.16 0H15.84C8.37293 0 4.63943 0 2.31971 2.31971ZM5.56883 10.0376C5.74758 18.6176 10.0376 23.7738 17.5588 23.7738H17.9851V18.8651C20.7489 19.1401 22.8387 21.1613 23.6775 23.7738H27.5826C26.5101 19.8688 23.6912 17.7101 21.9312 16.8851C23.6912 15.8676 26.1662 13.3926 26.7574 10.0376H23.2099C22.4399 12.7601 20.1576 15.2351 17.9851 15.4688V10.0376H14.4375V19.5526C12.2375 19.0026 9.46007 16.3351 9.33632 10.0376H5.56883Z" fill="white" fill-opacity="0.79"/>
</g>
<defs>
<clipPath id="clip0_279_333">
<rect width="33" height="33" fill="white"/>
</clipPath>
</defs>
</svg>
